<?xml version="1.0" encoding="utf-8"?>
<!-- Generator: Adobe Illustrator 19.2.1, SVG Export Plug-In . SVG Version: 6.00 Build 0)  -->
<svg version="1.1" id="Layer_1" xmlns="http://www.w3.org/2000/svg" xmlns:xlink="http://www.w3.org/1999/xlink" x="0px" y="0px"
	 viewBox="0 0 1017.3 534.6" style="enable-background:new 0 0 1017.3 534.6;" xml:space="preserve">
<style type="text/css">
	.st0{fill:#FFFFFF;}
</style>
<g>
	<path class="st0" d="M451.9,393.2c-5.4,0-9.7-4.4-9.7-10s4.2-10,9.7-10c5.4,0,9.7,4.4,9.7,10C461.5,388.9,457.3,393.2,451.9,393.2
		L451.9,393.2z M451.9,369.8c-7.5,0-13.5,6-13.5,13.5c0,7.4,6,13.4,13.5,13.4c7.4,0,13.5-6,13.5-13.4
		C465.3,375.7,459.4,369.8,451.9,369.8L451.9,369.8z"/>
	<path class="st0" d="M482.5,370.3v17.5c0,2.1-0.3,2.9-1.3,4c-0.9,1-2.2,1.5-3.6,1.5c-3,0-4.9-2.1-4.9-5.5v-17.5h-3.8v18
		c0,4.7,3.8,8.4,8.6,8.4c2.4,0,4.6-0.9,6.4-2.6c1.7-1.6,2.4-3.3,2.4-5.8v-18H482.5L482.5,370.3z"/>
	<path class="st0" d="M495,373.8h4c3.5,0,5.7,1.9,5.7,4.8c0,3.3-2.5,5-7.1,5H495V373.8L495,373.8z M501.1,386.5
		c2.1-0.3,2.9-0.6,4.1-1.4c2.1-1.3,3.3-3.7,3.3-6.6c0-2.4-0.9-4.7-2.4-6.1c-1.6-1.5-3.7-2.2-6.9-2.2h-8v25.9h3.8v-12l8.6,12h4.7
		L501.1,386.5L501.1,386.5z"/>
	<path class="st0" d="M526,373.8h3.8c3.4,0,5.2,1.4,5.2,4.2c0,2.8-1.9,4.5-5.2,4.5H526V373.8L526,373.8z M529.7,386
		c3.4,0,5.3-0.7,7.1-2.6c1.4-1.5,2-3.2,2-5.4c0-4.5-3.2-7.7-7.6-7.7h-9v25.9h3.8V386H529.7L529.7,386z"/>
	<polygon class="st0" points="556.3,392.7 546.1,392.7 546.1,384.8 556.3,384.8 556.3,381.4 546.1,381.4 546.1,373.8 556.3,373.8 
		556.3,370.3 542.3,370.3 542.3,396.2 556.3,396.2 	"/>
	<path class="st0" d="M572.7,393.2c-5.4,0-9.7-4.4-9.7-10s4.2-10,9.7-10s9.7,4.4,9.7,10C582.3,388.9,578.1,393.2,572.7,393.2
		L572.7,393.2z M572.7,369.8c-7.5,0-13.5,6-13.5,13.5c0,7.4,6,13.4,13.5,13.4c7.4,0,13.5-6,13.5-13.4
		C586.1,375.7,580.1,369.8,572.7,369.8L572.7,369.8z"/>
	<path class="st0" d="M593.8,373.8h3.8c3.4,0,5.2,1.4,5.2,4.2c0,2.8-1.9,4.5-5.2,4.5h-3.9v-8.7H593.8z M597.5,386
		c3.4,0,5.3-0.7,7.1-2.6c1.4-1.5,2-3.2,2-5.4c0-4.5-3.2-7.7-7.6-7.7h-9v25.9h3.8V386H597.5L597.5,386z"/>
	<polygon class="st0" points="622.8,392.7 613.8,392.7 613.8,370.3 610.1,370.3 610.1,396.2 622.8,396.2 	"/>
	<polygon class="st0" points="640,392.7 629.8,392.7 629.8,384.8 640,384.8 640,381.4 629.8,381.4 629.8,373.8 640,373.8 640,370.3 
		626.1,370.3 626.1,396.2 640,396.2 	"/>
	<polygon class="st0" points="681.4,370.3 675.5,370.3 667.7,390.1 659.9,370.3 654,370.3 654,396.2 657.7,396.2 657.7,374.3 
		666.5,396.2 668.8,396.2 677.6,374.3 677.6,396.2 681.4,396.2 	"/>
	<path class="st0" d="M692.2,385.1l3.3-9.9l3.3,9.9H692.2L692.2,385.1z M697.2,370.3h-3.4l-9.8,25.9h4l2.9-7.6h9.3l2.9,7.6h4
		L697.2,370.3L697.2,370.3z"/>
	<polygon class="st0" points="717.8,383.1 728,370.3 723.3,370.3 713.4,383.1 713.4,370.3 709.7,370.3 709.7,396.2 713.4,396.2 
		713.4,383.1 723.3,396.2 728,396.2 	"/>
	<polygon class="st0" points="744.5,392.7 734.3,392.7 734.3,384.8 744.5,384.8 744.5,381.4 734.3,381.4 734.3,373.8 744.5,373.8 
		744.5,370.3 730.6,370.3 730.6,396.2 744.5,396.2 	"/>
	<polygon class="st0" points="765.1,373.8 770,373.8 770,370.3 756.3,370.3 756.3,373.8 761.3,373.8 761.3,396.2 765.1,396.2 	"/>
	<polygon class="st0" points="791.2,370.3 787.4,370.3 787.4,381.4 776.8,381.4 776.8,370.3 773,370.3 773,396.2 776.8,396.2 
		776.8,384.9 787.4,384.9 787.4,396.2 791.2,396.2 	"/>
	<polygon class="st0" points="810.4,392.7 800.2,392.7 800.2,384.8 810.4,384.8 810.4,381.4 800.2,381.4 800.2,373.8 810.4,373.8 
		810.4,370.3 796.4,370.3 796.4,396.2 810.4,396.2 	"/>
	<path class="st0" d="M828.1,373.8h4.7c2.9,0,4.9,0.7,6.7,2.6c1.8,1.8,2.8,4.3,2.8,7c0,2.9-1.2,5.5-3.1,7.2
		c-1.8,1.5-4.3,2.2-7.9,2.2h-3.1v-19H828.1z M832.4,396.2c4.7,0,8-1.2,10.3-3.8c2-2.2,3.3-5.6,3.3-9c0-3.7-1.4-7.1-3.8-9.6
		c-2.3-2.3-5-3.5-8.7-3.5h-9.2v25.9H832.4L832.4,396.2z"/>
	<polygon class="st0" points="853.6,370.3 849.8,370.3 849.8,396.2 853.6,396.2 	"/>
	<polygon class="st0" points="862.5,385 871.8,385 871.8,381.5 862.5,381.5 862.5,373.8 871.8,373.8 871.8,370.3 858.8,370.3 
		858.8,396.2 862.5,396.2 	"/>
	<polygon class="st0" points="879.2,385 888.5,385 888.5,381.5 879.2,381.5 879.2,373.8 888.5,373.8 888.5,370.3 875.5,370.3 
		875.5,396.2 879.2,396.2 	"/>
	<polygon class="st0" points="906.1,392.7 895.9,392.7 895.9,384.8 906.1,384.8 906.1,381.4 895.9,381.4 895.9,373.8 906.1,373.8 
		906.1,370.3 892.2,370.3 892.2,396.2 906.1,396.2 	"/>
	<path class="st0" d="M914.1,373.8h4c3.5,0,5.7,1.9,5.7,4.8c0,3.3-2.5,5-7.1,5h-2.6L914.1,373.8L914.1,373.8z M920.2,386.5
		c2.1-0.3,2.9-0.6,4.2-1.4c2.1-1.3,3.3-3.7,3.3-6.6c0-2.4-0.9-4.7-2.4-6.1c-1.6-1.5-3.7-2.2-6.9-2.2h-8v25.9h3.8v-12l8.6,12h4.7
		L920.2,386.5L920.2,386.5z"/>
	<polygon class="st0" points="945.6,392.7 935.4,392.7 935.4,384.8 945.6,384.8 945.6,381.4 935.4,381.4 935.4,373.8 945.6,373.8 
		945.6,370.3 931.7,370.3 931.7,396.2 945.6,396.2 	"/>
	<polygon class="st0" points="970.4,370.3 966.6,370.3 966.6,390 954,370.3 949.8,370.3 949.8,396.2 953.6,396.2 953.6,376.2 
		966.5,396.2 970.4,396.2 	"/>
	<path class="st0" d="M995,389.8c-1.9,2.2-4.3,3.4-7.1,3.4c-5.2,0-9.5-4.6-9.5-10.1s4.3-9.9,9.6-9.9c2.9,0,5.2,1.2,7.3,3.7h4.5
		c-2.6-4.6-6.8-7.1-11.9-7.1c-7.4,0-13.3,5.9-13.3,13.4c0,7.4,6,13.5,13.3,13.5c5,0,9.3-2.5,11.8-6.9H995L995,389.8z"/>
	<polygon class="st0" points="1017.3,392.7 1007.1,392.7 1007.1,384.8 1017.3,384.8 1017.3,381.4 1007.1,381.4 1007.1,373.8 
		1017.3,373.8 1017.3,370.3 1003.3,370.3 1003.3,396.2 1017.3,396.2 	"/>
	<polygon class="st0" points="214,495.2 243.5,457.7 230,457.7 201.1,495.2 201.1,457.7 190.2,457.7 190.2,533.2 201.1,533.2 
		201.1,495.2 230,533.2 243.5,533.2 	"/>
	<polygon class="st0" points="300.7,467.9 315.1,467.9 315.1,457.7 275.2,457.7 275.2,467.9 289.6,467.9 289.6,533.2 300.7,533.2 	
		"/>
	<path class="st0" d="M348,524.6c-15.8,0-28.2-12.7-28.2-29.2c0-16.2,12.3-29.1,28.2-29.1c16.2,0,28.1,13.1,28.1,29.1
		C376.1,511.9,363.9,524.6,348,524.6L348,524.6z M347.7,534.6h0.6c21.6-0.2,38.9-17.6,38.9-39.1c0-21.9-17.4-39.2-39.2-39.2
		c-21.8,0-39.2,17.4-39.2,39.2C308.7,517,326.1,534.5,347.7,534.6L347.7,534.6z"/>
	<polygon class="st0" points="432.8,523.1 403,523.1 403,500.1 432.8,500.1 432.8,490.1 403,490.1 403,467.9 432.8,467.9 
		432.8,457.7 392.1,457.7 392.1,533.2 432.8,533.2 	"/>
	<polygon class="st0" points="497.8,457.7 486.7,457.7 486.7,515.2 449.9,457.7 437.9,457.7 437.9,533.2 448.8,533.2 448.8,474.9 
		486.4,533.2 497.8,533.2 	"/>
	<polygon class="st0" points="592.6,457.7 581.6,457.7 581.6,515.2 544.7,457.7 532.7,457.7 532.7,533.2 543.7,533.2 543.7,474.9 
		581.2,533.2 592.6,533.2 	"/>
	<polygon class="st0" points="677.4,467.9 691.7,467.9 691.7,457.7 650.3,457.7 650.3,467.9 666.3,467.9 666.3,533.2 677.4,533.2 	
		"/>
	<polygon class="st0" points="705.3,457.7 694.3,457.7 694.3,533.2 705.3,533.2 	"/>
	<polygon class="st0" points="758.1,522.6 728.4,522.6 728.4,499.7 758.1,499.7 758.1,489.6 728.4,489.6 728.4,467.4 758.1,467.4 
		758.1,457.3 717.4,457.3 717.4,532.7 758.1,532.7 	"/>
	<polygon class="st0" points="647.3,533.1 636.2,533.1 636.2,475.7 597.4,533.1 584.5,533.1 634.9,457.7 647.3,457.7 	"/>
	<polygon class="st0" points="608.5,502.2 640.7,502.2 640.7,513.1 608.5,513.1 	"/>
	<polygon class="st0" points="271.6,533.2 260.5,533.2 260.5,475.8 221.7,533.2 208.7,533.2 259.2,457.8 271.6,457.8 	"/>
	<polygon class="st0" points="232.7,502.2 264.9,502.2 264.9,513.2 232.7,513.2 	"/>
	<polygon class="st0" points="124.4,126 65.7,170.9 65.7,243.9 124.4,287.1 183.7,243.9 183.7,170.9 	"/>
	<polygon class="st0" points="314.7,170.9 255.5,126 196.7,170.9 196.7,243.9 255.5,287.1 314.7,243.9 	"/>
	<polygon class="st0" points="320.9,252.9 262.1,297.8 262.1,370.8 320.9,414 380.1,370.8 380.1,297.8 	"/>
	<polygon class="st0" points="190.1,252.9 131.4,297.8 131.4,370.8 190.1,414 249.4,370.8 249.4,297.8 	"/>
	<polygon class="st0" points="190.1,0 131.4,44.9 131.4,117.9 190.1,161.1 249.4,117.9 249.4,44.9 190.1,0 	"/>
	<polygon class="st0" points="0,370.8 58.8,414 118,370.8 118,297.8 58.7,252.9 0,297.8 	"/>
</g>
</svg>
